<mxfile host="app.diagrams.net" agent="Mozilla/5.0 (Windows NT 10.0; Win64; x64) AppleWebKit/537.36 (KHTML, like Gecko) Chrome/131.0.0.0 Safari/537.36 Edg/131.0.0.0" version="25.0.3">
  <diagram id="C5RBs43oDa-KdzZeNtuy" name="Page-1">
    <mxGraphModel dx="604" dy="353" grid="1" gridSize="10" guides="1" tooltips="1" connect="1" arrows="1" fold="1" page="1" pageScale="1" pageWidth="827" pageHeight="1169" math="0" shadow="0">
      <root>
        <mxCell id="WIyWlLk6GJQsqaUBKTNV-0" />
        <mxCell id="WIyWlLk6GJQsqaUBKTNV-1" parent="WIyWlLk6GJQsqaUBKTNV-0" />
        <mxCell id="mvod55NQ8pnwh4oTfQ6S-0" style="edgeStyle=orthogonalEdgeStyle;rounded=0;orthogonalLoop=1;jettySize=auto;html=1;" edge="1" parent="WIyWlLk6GJQsqaUBKTNV-1" source="mvod55NQ8pnwh4oTfQ6S-1">
          <mxGeometry relative="1" as="geometry">
            <mxPoint x="545" y="290" as="targetPoint" />
          </mxGeometry>
        </mxCell>
        <mxCell id="mvod55NQ8pnwh4oTfQ6S-1" value="&lt;h1&gt;START&lt;/h1&gt;" style="ellipse;whiteSpace=wrap;html=1;fontStyle=0;align=center;fontFamily=Helvetica;" vertex="1" parent="WIyWlLk6GJQsqaUBKTNV-1">
          <mxGeometry x="490" y="170" width="110" height="60" as="geometry" />
        </mxCell>
        <mxCell id="mvod55NQ8pnwh4oTfQ6S-2" style="edgeStyle=orthogonalEdgeStyle;rounded=0;orthogonalLoop=1;jettySize=auto;html=1;entryX=0.5;entryY=0;entryDx=0;entryDy=0;" edge="1" parent="WIyWlLk6GJQsqaUBKTNV-1" source="mvod55NQ8pnwh4oTfQ6S-3" target="mvod55NQ8pnwh4oTfQ6S-5">
          <mxGeometry relative="1" as="geometry" />
        </mxCell>
        <mxCell id="mvod55NQ8pnwh4oTfQ6S-3" value="Accept a Number" style="shape=parallelogram;perimeter=parallelogramPerimeter;whiteSpace=wrap;html=1;fixedSize=1;" vertex="1" parent="WIyWlLk6GJQsqaUBKTNV-1">
          <mxGeometry x="462.5" y="290" width="165" height="50" as="geometry" />
        </mxCell>
        <mxCell id="mvod55NQ8pnwh4oTfQ6S-4" style="edgeStyle=orthogonalEdgeStyle;rounded=0;orthogonalLoop=1;jettySize=auto;html=1;" edge="1" parent="WIyWlLk6GJQsqaUBKTNV-1" source="mvod55NQ8pnwh4oTfQ6S-5">
          <mxGeometry relative="1" as="geometry">
            <mxPoint x="545" y="510" as="targetPoint" />
          </mxGeometry>
        </mxCell>
        <mxCell id="mvod55NQ8pnwh4oTfQ6S-5" value="Divisible by 2" style="rounded=0;whiteSpace=wrap;html=1;" vertex="1" parent="WIyWlLk6GJQsqaUBKTNV-1">
          <mxGeometry x="485" y="390" width="120" height="60" as="geometry" />
        </mxCell>
        <mxCell id="mvod55NQ8pnwh4oTfQ6S-6" style="edgeStyle=orthogonalEdgeStyle;rounded=0;orthogonalLoop=1;jettySize=auto;html=1;exitX=0;exitY=0.5;exitDx=0;exitDy=0;" edge="1" parent="WIyWlLk6GJQsqaUBKTNV-1" source="mvod55NQ8pnwh4oTfQ6S-8">
          <mxGeometry relative="1" as="geometry">
            <mxPoint x="340" y="640" as="targetPoint" />
          </mxGeometry>
        </mxCell>
        <mxCell id="mvod55NQ8pnwh4oTfQ6S-7" style="edgeStyle=orthogonalEdgeStyle;rounded=0;orthogonalLoop=1;jettySize=auto;html=1;exitX=1;exitY=0.5;exitDx=0;exitDy=0;" edge="1" parent="WIyWlLk6GJQsqaUBKTNV-1" source="mvod55NQ8pnwh4oTfQ6S-8" target="mvod55NQ8pnwh4oTfQ6S-10">
          <mxGeometry relative="1" as="geometry">
            <mxPoint x="721.7142944335938" y="640" as="targetPoint" />
          </mxGeometry>
        </mxCell>
        <mxCell id="mvod55NQ8pnwh4oTfQ6S-8" value="is remainder = 0" style="rhombus;whiteSpace=wrap;html=1;" vertex="1" parent="WIyWlLk6GJQsqaUBKTNV-1">
          <mxGeometry x="462.5" y="510" width="162.5" height="80" as="geometry" />
        </mxCell>
        <mxCell id="mvod55NQ8pnwh4oTfQ6S-9" value="Display odd" style="shape=parallelogram;perimeter=parallelogramPerimeter;whiteSpace=wrap;html=1;fixedSize=1;" vertex="1" parent="WIyWlLk6GJQsqaUBKTNV-1">
          <mxGeometry x="250" y="640" width="180" height="50" as="geometry" />
        </mxCell>
        <mxCell id="mvod55NQ8pnwh4oTfQ6S-10" value="Display even" style="shape=parallelogram;perimeter=parallelogramPerimeter;whiteSpace=wrap;html=1;fixedSize=1;" vertex="1" parent="WIyWlLk6GJQsqaUBKTNV-1">
          <mxGeometry x="660" y="640" width="170" height="40" as="geometry" />
        </mxCell>
        <mxCell id="mvod55NQ8pnwh4oTfQ6S-11" value="Yes" style="text;html=1;align=center;verticalAlign=middle;whiteSpace=wrap;rounded=0;" vertex="1" parent="WIyWlLk6GJQsqaUBKTNV-1">
          <mxGeometry x="700" y="520" width="60" height="30" as="geometry" />
        </mxCell>
        <mxCell id="mvod55NQ8pnwh4oTfQ6S-12" value="No" style="text;html=1;align=center;verticalAlign=middle;whiteSpace=wrap;rounded=0;" vertex="1" parent="WIyWlLk6GJQsqaUBKTNV-1">
          <mxGeometry x="320" y="520" width="60" height="30" as="geometry" />
        </mxCell>
        <mxCell id="mvod55NQ8pnwh4oTfQ6S-13" value="" style="endArrow=none;html=1;rounded=0;" edge="1" parent="WIyWlLk6GJQsqaUBKTNV-1">
          <mxGeometry width="50" height="50" relative="1" as="geometry">
            <mxPoint x="330" y="820" as="sourcePoint" />
            <mxPoint x="750" y="820" as="targetPoint" />
            <Array as="points">
              <mxPoint x="710" y="820" />
            </Array>
          </mxGeometry>
        </mxCell>
        <mxCell id="mvod55NQ8pnwh4oTfQ6S-14" value="" style="endArrow=none;html=1;rounded=0;entryX=0.451;entryY=1.063;entryDx=0;entryDy=0;entryPerimeter=0;" edge="1" parent="WIyWlLk6GJQsqaUBKTNV-1" target="mvod55NQ8pnwh4oTfQ6S-9">
          <mxGeometry width="50" height="50" relative="1" as="geometry">
            <mxPoint x="330" y="820" as="sourcePoint" />
            <mxPoint x="380" y="770" as="targetPoint" />
            <Array as="points" />
          </mxGeometry>
        </mxCell>
        <mxCell id="mvod55NQ8pnwh4oTfQ6S-15" value="" style="endArrow=none;html=1;rounded=0;entryX=0.5;entryY=1;entryDx=0;entryDy=0;" edge="1" parent="WIyWlLk6GJQsqaUBKTNV-1" target="mvod55NQ8pnwh4oTfQ6S-10">
          <mxGeometry width="50" height="50" relative="1" as="geometry">
            <mxPoint x="745" y="820" as="sourcePoint" />
            <mxPoint x="770" y="710" as="targetPoint" />
            <Array as="points" />
          </mxGeometry>
        </mxCell>
        <mxCell id="mvod55NQ8pnwh4oTfQ6S-16" value="" style="endArrow=classic;html=1;rounded=0;" edge="1" parent="WIyWlLk6GJQsqaUBKTNV-1" target="mvod55NQ8pnwh4oTfQ6S-17">
          <mxGeometry width="50" height="50" relative="1" as="geometry">
            <mxPoint x="510" y="820" as="sourcePoint" />
            <mxPoint x="510" y="860" as="targetPoint" />
            <Array as="points" />
          </mxGeometry>
        </mxCell>
        <mxCell id="mvod55NQ8pnwh4oTfQ6S-17" value="&lt;h1&gt;END&lt;/h1&gt;" style="ellipse;whiteSpace=wrap;html=1;" vertex="1" parent="WIyWlLk6GJQsqaUBKTNV-1">
          <mxGeometry x="450" y="860" width="120" height="80" as="geometry" />
        </mxCell>
      </root>
    </mxGraphModel>
  </diagram>
</mxfile>
